<svg version="1.1" id="Layer_1" xmlns="http://www.w3.org/2000/svg" x="0" y="0" viewBox="0 0 512 512" style="enable-background:new 0 0 512 512" xml:space="preserve"><style>.st4{fill:#ffffff}.st5{font-family:&apos;Raleway-Regular&apos;}.st6{font-size:72.6838px}.st7{fill:#ffffff}.st8{font-size:40.3283px}</style><path d="M183.7 36.9c-.9 0-1.9 0-2.8.1-.9 0-1.9.1-2.8.2-.9.1-1.9.2-2.8.3-.9.1-1.9.3-2.8.5-.9.2-1.8.4-2.8.6-.9.2-1.8.5-2.7.8l-2.7.9c-.9.3-1.8.7-2.6 1-.9.4-1.7.7-2.6 1.1-.9.4-1.7.8-2.5 1.3-.8.4-1.6.9-2.5 1.4l-2.4 1.5c-.8.5-1.6 1.1-2.3 1.6s-1.5 1.1-2.2 1.7l-2.1 1.8c-.7.6-1.4 1.3-2 1.9-.7.7-1.3 1.3-1.9 2l-1.8 2.1c-.6.7-1.2 1.5-1.7 2.2-.6.8-1.1 1.5-1.6 2.3l-1.5 2.4c-.5.8-.9 1.6-1.4 2.5-.4.8-.9 1.7-1.3 2.5-.4.9-.8 1.7-1.1 2.6-.4.9-.7 1.7-1 2.6l-.9 2.7c-.3.9-.5 1.8-.8 2.7-.2.9-.4 1.8-.6 2.8s-.3 1.9-.5 2.8c-.1.9-.3 1.9-.3 2.8-.1.9-.2 1.9-.2 2.8s-.1 1.9-.1 2.8c0 .9 0 1.9.1 2.8 0 .9.1 1.9.2 2.8.1.9.2 1.9.3 2.8.1.9.3 1.9.5 2.8.2.9.4 1.8.6 2.8.2.9.5 1.8.8 2.7l.9 2.7c.3.9.7 1.8 1 2.6.4.9.7 1.7 1.1 2.6.4.9.8 1.7 1.3 2.5.4.8.9 1.6 1.4 2.5l1.5 2.4c.5.8 1.1 1.6 1.6 2.3.6.8 1.1 1.5 1.7 2.2l1.8 2.1c.6.7 1.3 1.4 1.9 2 .7.7 1.3 1.3 2 1.9l2.1 1.8c.7.6 1.5 1.2 2.2 1.7.8.6 1.5 1.1 2.3 1.6l2.4 1.5c.8.5 1.6.9 2.5 1.4s1.7.9 2.5 1.3c.9.4 1.7.8 2.6 1.1.9.4 1.7.7 2.6 1l2.7.9c.9.3 1.8.5 2.7.8.9.2 1.8.4 2.8.6.9.2 1.9.3 2.8.5.9.1 1.9.3 2.8.3.9.1 1.9.2 2.8.2.9 0 1.9.1 2.8.1.9 0 1.9 0 2.8-.1.9 0 1.9-.1 2.8-.2.9-.1 1.9-.2 2.8-.3.9-.1 1.9-.3 2.8-.5.9-.2 1.8-.4 2.8-.6.9-.2 1.8-.5 2.7-.8l2.7-.9c.9-.3 1.8-.7 2.6-1 .9-.4 1.7-.7 2.6-1.1.9-.4 1.7-.8 2.5-1.3.8-.4 1.6-.9 2.5-1.4l2.4-1.5c.8-.5 1.6-1.1 2.3-1.6.8-.6 1.5-1.1 2.2-1.7l2.1-1.8c.7-.6 1.4-1.3 2-1.9.7-.7 1.3-1.3 1.9-2l1.8-2.1c.6-.7 1.2-1.5 1.7-2.2.6-.8 1.1-1.5 1.6-2.3l1.5-2.4c.5-.8.9-1.6 1.4-2.5.4-.8.9-1.7 1.3-2.5.4-.9.8-1.7 1.1-2.6.4-.9.7-1.7 1-2.6l.9-2.7c.3-.9.5-1.8.8-2.7.2-.9.4-1.8.6-2.8.2-.9.3-1.9.5-2.8.1-.9.3-1.9.3-2.8.1-.9.2-1.9.2-2.8 0-.9.1-1.9.1-2.8 0-.9 0-1.9-.1-2.8 0-.9-.1-1.9-.2-2.8-.1-.9-.2-1.9-.3-2.8-.1-.9-.3-1.9-.5-2.8-.2-.9-.4-1.8-.6-2.8-.2-.9-.5-1.8-.8-2.7l-.9-2.7c-.3-.9-.7-1.8-1-2.6-.4-.9-.7-1.7-1.1-2.6-.4-.9-.8-1.7-1.3-2.5-.4-.8-.9-1.6-1.4-2.5l-1.5-2.4c-.5-.8-1.1-1.6-1.6-2.3-.6-.8-1.1-1.5-1.7-2.2l-1.8-2.1c-.6-.7-1.3-1.4-1.9-2-.7-.7-1.3-1.3-2-1.9l-2.1-1.8c-.7-.6-1.5-1.2-2.2-1.7-.8-.6-1.5-1.1-2.3-1.6l-2.4-1.5c-.8-.5-1.6-.9-2.5-1.4-.8-.4-1.7-.9-2.5-1.3-.9-.4-1.7-.8-2.6-1.1-.9-.4-1.7-.7-2.6-1l-2.7-.9c-.9-.3-1.8-.5-2.7-.8-.9-.2-1.8-.4-2.8-.6-.9-.2-1.9-.3-2.8-.5-.9-.1-1.9-.3-2.8-.3-.9-.1-1.9-.2-2.8-.2-1-.1-1.9-.1-2.8-.1z" style="fill:#651fb2"/><path d="M328.9 36.9c-.9 0-1.9 0-2.8.1-.9 0-1.9.1-2.8.2-.9.1-1.9.2-2.8.3-.9.1-1.9.3-2.8.5-.9.2-1.8.4-2.8.6-.9.2-1.8.5-2.7.8l-2.7.9c-.9.3-1.8.7-2.6 1-.9.4-1.7.7-2.6 1.1-.9.4-1.7.8-2.5 1.3-.8.4-1.6.9-2.5 1.4l-2.4 1.5c-.8.5-1.6 1.1-2.3 1.6-.8.6-1.5 1.1-2.2 1.7l-2.1 1.8c-.7.6-1.4 1.3-2 1.9-.7.7-1.3 1.3-1.9 2l-1.8 2.1c-.6.7-1.2 1.5-1.7 2.2-.6.8-1.1 1.5-1.6 2.3l-1.5 2.4c-.5.8-.9 1.6-1.4 2.5-.4.8-.9 1.7-1.3 2.5-.4.9-.8 1.7-1.1 2.6-.4.9-.7 1.7-1 2.6l-.9 2.7c-.3.9-.5 1.8-.8 2.7-.2.9-.4 1.8-.6 2.8s-.6 2-.7 3c-.1.9-.3 1.9-.3 2.8-.1.9-.2 1.9-.2 2.8s-.1 1.9-.1 2.8c0 .9 0 1.9.1 2.8 0 .9.1 1.9.2 2.8.1.9.2 1.9.3 2.8.1.9.3 1.9.5 2.8.2.9.4 1.8.6 2.8.2.9.5 1.8.8 2.7l.9 2.7c.3.9.7 1.8 1 2.6.4.9.7 1.7 1.1 2.6.4.9.8 1.7 1.3 2.5.4.8.9 1.6 1.4 2.5l1.5 2.4c.5.8 1.1 1.6 1.6 2.3.6.8 1.1 1.5 1.7 2.2l1.8 2.1c.6.7 1.3 1.4 1.9 2 .7.7 1.3 1.3 2 1.9l2.1 1.8c.7.6 1.5 1.2 2.2 1.7.8.6 1.5 1.1 2.3 1.6l2.4 1.5c.8.5 1.6.9 2.5 1.4.8.4 1.7.9 2.5 1.3.9.4 1.7.8 2.6 1.1.9.4 1.7.7 2.6 1l2.7.9c.9.3 1.8.5 2.7.8.9.2 1.8.4 2.8.6.9.2 1.9.3 2.8.5.9.1 1.9.3 2.8.3.9.1 1.9.2 2.8.2.9 0 1.9.1 2.8.1.9 0 1.9 0 2.8-.1.9 0 1.9-.1 2.8-.2.9-.1 1.9-.2 2.8-.3.9-.1 1.9-.3 2.8-.5s1.8-.4 2.8-.6c.9-.2 1.8-.5 2.7-.8l2.7-.9c.9-.3 1.8-.7 2.6-1 .9-.4 1.7-.7 2.6-1.1.9-.4 1.7-.8 2.5-1.3.8-.4 1.6-.9 2.5-1.4l2.4-1.5c.8-.5 1.6-1.1 2.3-1.6.8-.6 1.5-1.1 2.2-1.7l2.1-1.8c.7-.6 1.4-1.3 2-1.9.7-.7 1.3-1.3 1.9-2l1.8-2.1c.6-.7 1.2-1.5 1.7-2.2.6-.8 1.1-1.5 1.6-2.3l1.5-2.4c.5-.8.9-1.6 1.4-2.5.4-.8.9-1.7 1.3-2.5.4-.9.8-1.7 1.1-2.6.4-.9.7-1.7 1-2.6l.9-2.7c.3-.9.5-1.8.8-2.7.2-.9.4-1.8.6-2.8.2-.9.3-1.9.5-2.8.1-.9.3-1.9.3-2.8.1-.9.2-1.9.2-2.8 0-.9.1-1.9.1-2.8 0-.9 0-1.9-.1-2.8s-.1-1.9-.2-2.8c-.1-.9-.2-1.9-.3-2.8-.1-.9-.3-1.9-.5-2.8s-.4-1.8-.6-2.8c-.2-.9-.5-1.8-.8-2.7l-.9-2.7c-.3-.9-.7-1.8-1-2.6-.4-.9-.7-1.7-1.1-2.6-.4-.9-.8-1.7-1.3-2.5-.4-.8-.9-1.6-1.4-2.5l-1.5-2.4c-.5-.8-1.1-1.6-1.6-2.3-.6-.8-1.1-1.5-1.7-2.2l-1.8-2.1c-.6-.7-1.3-1.4-1.9-2-.7-.7-1.3-1.3-2-1.9l-2.1-1.8c-.7-.6-1.5-1.2-2.2-1.7s-1.5-1.1-2.3-1.6l-2.4-1.5c-.8-.5-1.6-.9-2.5-1.4-.8-.4-1.7-.9-2.5-1.3-.9-.4-1.7-.8-2.6-1.1-.9-.4-1.7-.7-2.6-1l-2.7-.9c-.9-.3-1.8-.5-2.7-.8-.9-.2-1.8-.4-2.8-.6s-1.9-.3-2.8-.5c-.9-.1-1.9-.3-2.8-.3-.9-.1-1.9-.2-2.8-.2-.7-.3-1.7-.3-2.6-.3z" style="fill:#ea148c"/><path d="M183.7 166.2c-.9 0-1.9 0-2.8.1-.9 0-1.9.1-2.8.2-.9.1-1.9.2-2.8.3-.9.1-1.9.3-2.8.5-.9.2-1.8.4-2.8.6-.9.2-1.8.5-2.7.8l-2.7.9c-.9.3-1.8.7-2.6 1-.9.4-1.7.7-2.6 1.1-.9.4-1.7.8-2.5 1.3-.8.4-1.6.9-2.5 1.4l-2.4 1.5c-.8.5-1.6 1.1-2.3 1.6-.8.6-1.5 1.1-2.2 1.7l-2.1 1.8c-.7.6-1.4 1.3-2 1.9-.7.7-1.3 1.3-1.9 2l-1.8 2.1c-.6.7-1.2 1.5-1.7 2.2-.6.8-1.1 1.5-1.6 2.3l-1.5 2.4c-.5.8-.9 1.6-1.4 2.5-.4.8-.9 1.7-1.3 2.5-.4.9-.8 1.7-1.1 2.6-.4.9-.7 1.7-1 2.6l-.9 2.7c-.3.9-.5 1.8-.8 2.7-.2.9-.4 1.8-.6 2.8-.2.9-.3 1.9-.5 2.8-.1.9-.3 1.9-.3 2.8-.1.9-.2 1.9-.2 2.8s-.1 1.9-.1 2.8c0 .9 0 1.9.1 2.8s.1 1.9.2 2.8c.1.9.2 1.9.3 2.8.1.9.3 1.9.5 2.8.2.9.4 1.8.6 2.8.2.9.5 1.8.8 2.7l.9 2.7c.3.9.7 1.8 1 2.6.4.9.7 1.7 1.1 2.6.4.9.8 1.7 1.3 2.5.4.8.9 1.6 1.4 2.5l1.5 2.4c.5.8 1.1 1.6 1.6 2.3.6.8 1.1 1.5 1.7 2.2l1.8 2.1c.6.7 1.3 1.4 1.9 2 .7.7 1.3 1.3 2 1.9l2.1 1.8c.7.6 1.5 1.2 2.2 1.7.8.6 1.5 1.1 2.3 1.6l2.4 1.5c.8.5 1.6.9 2.5 1.4s1.7.9 2.5 1.3c.9.4 1.7.8 2.6 1.1.9.4 1.7.7 2.6 1l2.7.9c.9.3 1.8.5 2.7.8.9.2 1.8.4 2.8.6.9.2 1.9.3 2.8.5.9.1 1.9.3 2.8.3s1.9.2 2.8.2 1.9.1 2.8.1c.9 0 1.9 0 2.8-.1.9 0 1.9-.1 2.8-.2s1.9-.2 2.8-.3c.9-.1 1.9-.3 2.8-.5.9-.2 1.8-.4 2.8-.6.9-.2 1.8-.5 2.7-.8l2.7-.9c.9-.3 1.8-.7 2.6-1 .9-.4 1.7-.7 2.6-1.1.9-.4 1.7-.8 2.5-1.3.8-.4 1.6-.9 2.5-1.4l2.4-1.5c.8-.5 1.6-1.1 2.3-1.6.8-.6 1.5-1.1 2.2-1.7l2.1-1.8c.7-.6 1.4-1.3 2-1.9.7-.7 1.3-1.3 1.9-2l1.8-2.1c.6-.7 1.2-1.5 1.7-2.2.6-.8 1.1-1.5 1.6-2.3l1.5-2.4c.5-.8.9-1.6 1.4-2.5.4-.8.9-1.7 1.3-2.5.4-.9.8-1.7 1.1-2.6.4-.9.7-1.7 1-2.6l.9-2.7c.3-.9.5-1.8.8-2.7.2-.9.4-1.8.6-2.8.2-.9.3-1.9.5-2.8.1-.9.3-1.9.3-2.8.1-.9.2-1.9.2-2.8 0-.9.1-1.9.1-2.8 0-.9 0-1.9-.1-2.8 0-.9-.1-1.9-.2-2.8-.1-.9-.2-1.9-.3-2.8-.1-.9-.3-1.9-.5-2.8-.2-.9-.4-1.8-.6-2.8-.2-.9-.5-1.8-.8-2.7l-.9-2.7c-.3-.9-.7-1.8-1-2.6-.4-.9-.7-1.7-1.1-2.6-.4-.9-.8-1.7-1.3-2.5-.4-.8-.9-1.6-1.4-2.5l-1.5-2.4c-.5-.8-1.1-1.6-1.6-2.3-.6-.8-1.1-1.5-1.7-2.2l-1.8-2.1c-.6-.7-1.3-1.4-1.9-2-.7-.7-1.3-1.3-2-1.9l-2.1-1.8c-.7-.6-1.5-1.2-2.2-1.7-.8-.6-1.5-1.1-2.3-1.6l-2.4-1.5c-.8-.5-1.6-.9-2.5-1.4-.8-.4-1.7-.9-2.5-1.3-.9-.4-1.7-.8-2.6-1.1-.9-.4-1.7-.7-2.6-1l-2.7-.9c-.9-.3-1.8-.5-2.7-.8-.9-.2-1.8-.4-2.8-.6-.9-.2-1.9-.3-2.8-.5-.9-.1-1.9-.3-2.8-.3-.9-.1-1.9-.2-2.8-.2-1 0-1.9-.1-2.8-.1z" style="fill:#a926b1"/><path d="M328.9 166.2c-.9 0-1.9 0-2.8.1-.9 0-1.9.1-2.8.2-.9.1-1.9.2-2.8.3-.9.1-1.9.3-2.8.5-.9.2-1.8.4-2.8.6-.9.2-1.8.5-2.7.8l-2.7.9c-.9.3-1.8.7-2.6 1-.9.4-1.7.7-2.6 1.1-.9.4-1.7.8-2.5 1.3-.8.4-1.6.9-2.5 1.4l-2.4 1.5c-.8.5-1.6 1.1-2.3 1.6-.8.6-1.5 1.1-2.2 1.7l-2.1 1.8c-.7.6-1.4 1.3-2 1.9-.7.7-1.3 1.3-1.9 2l-1.8 2.1c-.6.7-1.2 1.5-1.7 2.2-.6.8-1.1 1.5-1.6 2.3l-1.5 2.4c-.5.8-.9 1.6-1.4 2.5-.4.8-.9 1.7-1.3 2.5-.4.9-.8 1.7-1.1 2.6-.4.9-.7 1.7-1 2.6l-.9 2.7c-.3.9-.5 1.8-.8 2.7s-.4 1.8-.6 2.8c-.2.9-.3 1.9-.5 2.8-.1.9-.3 1.9-.3 2.8-.1.9-.2 1.9-.2 2.8s-.1 1.9-.1 2.8c0 .9 0 1.9.1 2.8s.1 1.9.2 2.8c.1.9.2 1.9.3 2.8.1.9.3 1.9.5 2.8.2.9.4 1.8.6 2.8.2.9.5 1.8.8 2.7l.9 2.7c.3.9.7 1.8 1 2.6.4.9.7 1.7 1.1 2.6.4.9.8 1.7 1.3 2.5.4.8.9 1.6 1.4 2.5l1.5 2.4c.5.8 1.1 1.6 1.6 2.3.6.8 1.1 1.5 1.7 2.2l1.8 2.1c.6.7 1.3 1.4 1.9 2 .7.7 1.3 1.3 2 1.9l2.1 1.8c.7.6 1.5 1.2 2.2 1.7.8.6 1.5 1.1 2.3 1.6l2.4 1.5c.8.5 1.6.9 2.5 1.4.8.4 1.7.9 2.5 1.3.9.4 1.7.8 2.6 1.1.9.4 1.7.7 2.6 1l2.7.9c.9.3 1.8.5 2.7.8.9.2 1.8.4 2.8.6.9.2 1.9.3 2.8.5.9.1 1.9.3 2.8.3s1.9.2 2.8.2c.9 0 1.9.1 2.8.1.9 0 1.9 0 2.8-.1.9 0 1.9-.1 2.8-.2s1.9-.2 2.8-.3c.9-.1 1.9-.3 2.8-.5s1.8-.4 2.8-.6c.9-.2 1.8-.5 2.7-.8l2.7-.9c.9-.3 1.8-.7 2.6-1s1.7-.7 2.6-1.1c.9-.4 1.7-.8 2.5-1.3.8-.4 1.6-.9 2.5-1.4l2.4-1.5c.8-.5 1.6-1.1 2.3-1.6.8-.6 1.5-1.1 2.2-1.7l2.1-1.8c.7-.6 1.4-1.3 2-1.9.7-.7 1.3-1.3 1.9-2l1.8-2.1c.6-.7 1.2-1.5 1.7-2.2.6-.8 1.1-1.5 1.6-2.3l1.5-2.4c.5-.8.9-1.6 1.4-2.5.4-.8.9-1.7 1.3-2.5.4-.9.8-1.7 1.1-2.6.4-.9.7-1.7 1-2.6l.9-2.7c.3-.9.5-1.8.8-2.7.2-.9.4-1.8.6-2.8.2-.9.3-1.9.5-2.8.1-.9.3-1.9.3-2.8.1-.9.2-1.9.2-2.8s.1-1.9.1-2.8c0-.9 0-1.9-.1-2.8s-.1-1.9-.2-2.8c-.1-.9-.2-1.9-.3-2.8-.1-.9-.3-1.9-.5-2.8-.2-.9-.4-1.8-.6-2.8s-.5-1.8-.8-2.7l-.9-2.7c-.3-.9-.7-1.8-1-2.6-.4-.9-.7-1.7-1.1-2.6-.4-.9-.8-1.7-1.3-2.5-.4-.8-.9-1.6-1.4-2.5l-1.5-2.4c-.5-.8-1.1-1.6-1.6-2.3-.6-.8-1.1-1.5-1.7-2.2l-1.8-2.1c-.6-.7-1.3-1.4-1.9-2-.7-.7-1.3-1.3-2-1.9l-2.1-1.8c-.7-.6-1.5-1.2-2.2-1.7-.8-.6-1.5-1.1-2.3-1.6l-2.4-1.5c-.8-.5-1.6-.9-2.5-1.4-.8-.4-1.7-.9-2.5-1.3-.9-.4-1.7-.8-2.6-1.1-.9-.4-1.7-.7-2.6-1l-2.7-.9c-.9-.3-1.8-.5-2.7-.8-.9-.2-1.8-.4-2.8-.6s-1.9-.3-2.8-.5c-.9-.1-1.9-.3-2.8-.3-.9-.1-1.9-.2-2.8-.2-.9 0-1.9-.1-2.8-.1z" style="fill:#272058"/><text transform="translate(65.144 423.484)" class="st4 st5 st6">H</text><text transform="translate(132.67 423.484)" class="st4 st5 st6">A</text><text transform="translate(195.687 423.484)" class="st4 st5 st6">N</text><text transform="translate(265.682 423.484)" class="st4 st5 st6">D</text><text transform="translate(331.536 423.484)" class="st4 st5 st6">L</text><text transform="translate(387.79 423.484)" class="st4 st5 st6">E</text><text transform="translate(65.153 344.503)" class="st7 st5 st8">P</text><text transform="translate(111.567 344.503)" class="st7 st5 st8">R</text><text transform="translate(159.234 344.503)" class="st7 st5 st8">O</text><text transform="translate(210.85 344.503)" class="st7 st5 st8">P</text><text transform="translate(257.269 344.503)" class="st7 st5 st8">E</text><text transform="translate(303.166 344.503)" class="st7 st5 st8">R</text><text transform="translate(350.83 344.503)" class="st7 st5 st8">T</text><text transform="translate(396.764 344.503)" class="st7 st5 st8">Y</text><path class="st4" d="M79.4 454.9c-.3 1.7-1.2 3.1-2.6 4.2-1.4 1.1-2.9 1.6-4.6 1.6h-2.4l2.3-11.7h2.4c1.7 0 3 .5 4 1.6 1 1.2 1.3 2.6.9 4.3zm1.5 0c.2-1.1.2-2 0-2.9-.2-.9-.6-1.7-1.1-2.3s-1.3-1.1-2.1-1.5c-.8-.4-1.8-.6-2.9-.6h-3.9L68 462.2h3.9c1.1 0 2.1-.2 3.1-.6 1-.4 1.9-.9 2.7-1.5s1.5-1.4 2.1-2.3c.5-.9.9-1.9 1.1-2.9zM91.5 456.8h-6.8c.2-.4.4-.8.7-1.1.9-1.1 2-1.7 3.2-1.7.8 0 1.5.3 2 .8.7.5.9 1.2.9 2zm1.6.5c.3-1.3 0-2.4-.8-3.4-.8-.9-1.9-1.4-3.2-1.4-1.4 0-2.6.5-3.8 1.5-1.2 1-1.9 2.1-2.1 3.5-.3 1.4 0 2.6.8 3.5.4.5.8.8 1.4 1.1s1.2.4 2.1.4c.8 0 1.7-.3 2.6-.8.9-.5 1.7-1.2 2.3-2.1h-1.7c-.4.5-.9.8-1.5 1.1-.5.3-1.1.4-1.6.4-.8 0-1.5-.3-2.1-.8-.5-.5-.8-1.2-.8-2h8.4v-1zM107.3 462.2h1.5l1.2-6c.2-1.1.1-1.9-.3-2.6-.2-.3-.5-.6-.8-.8-.4-.2-.9-.3-1.5-.3s-1.3.2-1.9.5c-.5.3-1 .8-1.3 1.3-.1-.2-.2-.5-.3-.7-.2-.3-.5-.6-.8-.8-.4-.2-.9-.3-1.5-.3s-1.3.2-1.8.5-.9.7-1.3 1.2l.3-1.5h-1.5l-1.9 9.5h1.5l1-4.9c.2-.8.6-1.4 1-2 .3-.4.7-.7 1.1-1 .4-.3.9-.4 1.3-.4s.8.1 1 .2c.5.4.7 1.1.5 2.1l-1.2 6h1.5l1.2-6c0-.1 0-.2.1-.4s.2-.3.3-.5c.3-.4.7-.7 1.1-1 .4-.3.9-.4 1.3-.4s.8.1 1 .2c.5.4.7 1.1.5 2.1l-1.3 6zM122.7 457.4c.3-1.4 0-2.5-.8-3.5s-1.9-1.5-3.2-1.5-2.6.5-3.8 1.5c-1.2 1-1.9 2.1-2.1 3.5-.3 1.4 0 2.6.8 3.5.8 1 1.9 1.5 3.2 1.5 1.4 0 2.6-.5 3.8-1.5 1.1-.9 1.9-2.1 2.1-3.5zm-1.5 0c-.2.9-.7 1.8-1.5 2.4s-1.7 1-2.6 1c-1 0-1.7-.3-2.3-1s-.7-1.5-.5-2.4c.2-1 .7-1.8 1.5-2.4.8-.7 1.7-1 2.6-1 1 0 1.7.3 2.3 1 .5.7.7 1.5.5 2.4zM135.2 456.1c-.1-1.1-.5-1.9-1.2-2.6-.7-.7-1.7-1-2.8-1-1.4 0-2.6.5-3.7 1.5s-1.8 2.1-2.1 3.5c-.3 1.3 0 2.5.7 3.5.3.5.8.8 1.3 1.1.5.3 1.1.4 1.7.4s1.2-.1 1.7-.3c1.6-.5 2.9-1.6 3.7-3.1h-1.7c-.4.5-.9 1-1.5 1.3-.6.3-1.2.5-1.8.5-.9 0-1.6-.3-2.1-1s-.7-1.5-.5-2.4c.2-.9.6-1.7 1.4-2.4.3-.3.8-.6 1.2-.7.4-.2.9-.3 1.5-.3s1.1.2 1.6.6c.5.4.8.9.9 1.5h1.7zM143.4 454.7l.4-2c-.3-.1-.6-.2-.9-.2-1.1 0-2 .6-2.7 1.8l-.1.4.4-2H139l-1.9 9.5h1.5l.9-4.8c.2-.8.5-1.5 1-2.1.3-.3.5-.6.9-.8.3-.2.7-.3 1.1-.3.3 0 .6.2.9.5zM153.6 462.2l1.9-9.5H154l-.3 1.6c-.1-.1-.2-.2-.2-.3-.7-1-1.7-1.5-3-1.5s-2.5.5-3.6 1.5-1.7 2.1-2 3.5c-.3 1.3-.1 2.5.6 3.5s1.7 1.5 3 1.5 2.5-.5 3.6-1.5l.3-.3-.3 1.6h1.5zm-.6-4.7c-.2.9-.7 1.7-1.5 2.4s-1.6 1-2.6 1-1.7-.3-2.2-1c-.5-.7-.6-1.5-.5-2.4.2-.9.6-1.7 1.4-2.4.8-.7 1.6-1 2.6-1s1.7.3 2.2 1c.6.6.8 1.4.6 2.4zM157.9 454.1h2.4l-1.6 8.1h1.5l1.6-8.1h2.4l.2-1.4h-2.3l.7-3.7h-1.5l-.7 3.7h-2.4zM167 462.2l1.9-9.5h-1.5l-1.9 9.5h1.5zm2.4-12.8c-.2-.2-.4-.3-.6-.3-.3 0-.5.1-.7.3-.2.2-.4.4-.4.7 0 .3 0 .5.2.7.2.2.4.3.6.3.3 0 .5-.1.7-.3.2-.2.4-.4.4-.7 0-.2-.1-.5-.2-.7zM169.6 462.2h9.4l.3-1.4h-6.5l7.8-8.1h-8.8l-.3 1.4h5.9zM183.2 462.2l1.9-9.5h-1.5l-1.9 9.5h1.5zm2.4-12.8c-.2-.2-.4-.3-.6-.3-.3 0-.5.1-.7.3-.2.2-.4.4-.4.7 0 .3 0 .5.2.7.2.2.4.3.6.3s.5-.1.7-.3c.2-.2.4-.4.4-.7 0-.2-.1-.5-.2-.7zM193.8 462.2h1.5l1.1-6c.2-1.1.1-2-.3-2.7-.2-.3-.5-.6-.9-.8-.4-.2-.9-.3-1.6-.3-.7 0-1.3.2-1.9.5-.6.3-1.1.8-1.5 1.3l.3-1.6H189l-1.9 9.5h1.5l.8-4c.2-1.2.6-2.2 1.2-2.9.3-.4.7-.7 1.2-1 .5-.2 1-.4 1.7-.4.6 0 1.1.2 1.3.7.2.4.2 1 .1 1.6l-1.1 6.1zM199.6 463.5H198c0 1 .3 1.9.9 2.7.8 1 1.8 1.5 3.2 1.5 1.4 0 2.6-.5 3.8-1.5 1.1-1 1.9-2.1 2.1-3.5l1.9-10h-1.5l-.3 1.6c0-.1-.1-.2-.2-.3-.8-1-1.8-1.5-3-1.5-1.3 0-2.5.5-3.6 1.5s-1.7 2.1-2 3.5c-.3 1.3-.1 2.5.6 3.5s1.7 1.5 3.1 1.5c1.3 0 2.5-.5 3.6-1.5l.3-.3-.4 2.1c-.2.9-.7 1.7-1.5 2.4s-1.7 1-2.6 1c-.9 0-1.7-.3-2.2-1-.4-.6-.6-1.1-.6-1.7zm7.9-6c-.2.9-.7 1.7-1.5 2.4s-1.6 1-2.6 1c-.9 0-1.7-.3-2.2-1-.5-.7-.7-1.5-.5-2.4.2-.9.7-1.8 1.5-2.4.8-.7 1.6-1 2.6-1s1.7.3 2.2 1c.5.6.7 1.4.5 2.4zM227.7 462.2l1.9-9.5H228l-.3 1.6c-.1-.1-.2-.2-.2-.3-.7-1-1.7-1.5-3-1.5s-2.5.5-3.6 1.5-1.7 2.1-2 3.5c-.3 1.3-.1 2.5.6 3.5s1.7 1.5 3 1.5 2.5-.5 3.6-1.5l.3-.3-.3 1.6h1.6zm-.6-4.7c-.2.9-.7 1.7-1.5 2.4s-1.6 1-2.6 1-1.7-.3-2.2-1c-.5-.7-.6-1.5-.5-2.4.2-.9.6-1.7 1.4-2.4.8-.7 1.6-1 2.6-1s1.7.3 2.2 1c.6.6.8 1.4.6 2.4zM241.7 456.1c-.1-1.1-.5-1.9-1.2-2.6-.7-.7-1.7-1-2.8-1-1.4 0-2.6.5-3.7 1.5s-1.8 2.1-2.1 3.5c-.3 1.3 0 2.5.7 3.5.3.5.8.8 1.3 1.1.5.3 1.1.4 1.7.4.6 0 1.2-.1 1.7-.3 1.6-.5 2.9-1.6 3.7-3.1h-1.7c-.4.5-.9 1-1.5 1.3-.6.3-1.2.5-1.8.5-.9 0-1.6-.3-2.1-1s-.7-1.5-.5-2.4c.2-.9.6-1.7 1.4-2.4.3-.3.8-.6 1.2-.7.4-.2.9-.3 1.5-.3s1.1.2 1.6.6c.5.4.8.9.9 1.5h1.7zM253.7 456.1c-.1-1.1-.5-1.9-1.2-2.6-.7-.7-1.7-1-2.8-1-1.4 0-2.6.5-3.7 1.5s-1.8 2.1-2.1 3.5c-.3 1.3 0 2.5.7 3.5.3.5.8.8 1.3 1.1.5.3 1.1.4 1.7.4.6 0 1.2-.1 1.7-.3 1.6-.5 2.9-1.6 3.7-3.1h-1.7c-.4.5-.9 1-1.5 1.3-.6.3-1.2.5-1.8.5-.9 0-1.6-.3-2.1-1s-.7-1.5-.5-2.4c.2-.9.6-1.7 1.4-2.4.3-.3.8-.6 1.2-.7.4-.2.9-.3 1.5-.3s1.1.2 1.6.6c.5.4.8.9.9 1.5h1.7zM264.4 456.8h-6.8c.2-.4.4-.8.7-1.1.9-1.1 2-1.7 3.2-1.7.8 0 1.5.3 2 .8.6.5.8 1.2.9 2zm1.5.5c.3-1.3 0-2.4-.8-3.4-.8-.9-1.9-1.4-3.2-1.4-1.4 0-2.6.5-3.8 1.5-1.2 1-1.9 2.1-2.1 3.5-.3 1.4 0 2.6.8 3.5.4.5.8.8 1.4 1.1s1.2.4 2.1.4c.8 0 1.7-.3 2.6-.8.9-.5 1.7-1.2 2.3-2.1h-1.7c-.4.5-.9.8-1.5 1.1-.5.3-1.1.4-1.6.4-.8 0-1.5-.3-2.1-.8-.5-.5-.8-1.2-.8-2h8.4v-1zM269.7 460.9c-.3-.3-.5-.7-.6-1.3h-1.6c0 2 1 2.9 3.2 2.9.5 0 1 0 1.5-.2s.9-.3 1.3-.6c.8-.5 1.3-1.3 1.5-2.3.2-1-.2-1.8-1-2.2-.4-.2-.8-.4-1.3-.5-.5-.1-.9-.2-1.3-.3-.4-.1-.7-.3-1-.5-.2-.2-.3-.5-.2-1 .1-.4.3-.7.7-1 .4-.2.8-.3 1.3-.3s.8.1 1.1.3c.3.2.5.5.5 1.1h1.6c0-1-.3-1.6-.8-2-.5-.4-1.3-.6-2.2-.6-.9 0-1.8.2-2.5.7-.8.5-1.3 1.2-1.4 2.1-.1.5 0 .9.1 1.2.2.3.5.6 1 .9.4.2.8.3 1.3.5.5.1.9.3 1.3.4.9.3 1.3.8 1.2 1.4-.2 1-1 1.6-2.4 1.6-.5.1-1-.1-1.3-.3zM279.1 460.9c-.3-.3-.5-.7-.6-1.3H277c0 2 1 2.9 3.2 2.9.5 0 1 0 1.5-.2.5-.1.9-.3 1.3-.6.8-.5 1.3-1.3 1.5-2.3.2-1-.2-1.8-1-2.2-.4-.2-.8-.4-1.3-.5-.5-.1-.9-.2-1.3-.3-.4-.1-.7-.3-1-.5-.2-.2-.3-.5-.2-1 .1-.4.3-.7.7-1 .4-.2.8-.3 1.3-.3s.8.1 1.1.3c.3.2.5.5.5 1.1h1.6c0-1-.3-1.6-.8-2-.5-.4-1.3-.6-2.2-.6-.9 0-1.8.2-2.5.7-.8.5-1.3 1.2-1.4 2.1-.1.5 0 .9.1 1.2.2.3.5.6 1 .9.4.2.8.3 1.3.5.5.1.9.3 1.3.4.9.3 1.3.8 1.2 1.4-.2 1-1 1.6-2.4 1.6-.6.1-1.1-.1-1.4-.3zM293.8 454.1h2.4l-1.6 8.1h1.5l1.6-8.1h2.4l.2-1.4H298l.7-3.7h-1.5l-.7 3.7h-2.4zM311.5 457.4c.3-1.4 0-2.5-.8-3.5s-1.9-1.5-3.2-1.5c-1.4 0-2.6.5-3.8 1.5-1.2 1-1.9 2.1-2.1 3.5-.3 1.4 0 2.6.8 3.5.8 1 1.9 1.5 3.2 1.5s2.6-.5 3.8-1.5c1.1-.9 1.8-2.1 2.1-3.5zm-1.5 0c-.2.9-.7 1.8-1.5 2.4s-1.7 1-2.6 1c-1 0-1.7-.3-2.3-1-.5-.7-.7-1.5-.5-2.4.2-1 .7-1.8 1.5-2.4.8-.7 1.7-1 2.6-1 1 0 1.7.3 2.3 1 .5.7.7 1.5.5 2.4zM326.7 454.7l.4-2c-.3-.1-.6-.2-.9-.2-1.1 0-2 .6-2.7 1.8l-.1.4.4-2h-1.5l-1.9 9.5h1.5l.9-4.8c.2-.8.5-1.5 1-2.1.3-.3.5-.6.9-.8.3-.2.7-.3 1.1-.3.3 0 .7.2.9.5zM336.6 456.8h-6.8c.2-.4.4-.8.7-1.1.9-1.1 2-1.7 3.2-1.7.8 0 1.5.3 2 .8.6.5.8 1.2.9 2zm1.5.5c.3-1.3 0-2.4-.8-3.4-.8-.9-1.9-1.4-3.2-1.4-1.4 0-2.6.5-3.8 1.5-1.2 1-1.9 2.1-2.1 3.5-.3 1.4 0 2.6.8 3.5.4.5.8.8 1.4 1.1.5.3 1.2.4 2.1.4.8 0 1.7-.3 2.6-.8.9-.5 1.7-1.2 2.3-2.1h-1.7c-.4.5-.9.8-1.5 1.1-.5.3-1.1.4-1.6.4-.8 0-1.5-.3-2.1-.8-.5-.5-.8-1.2-.8-2h8.4v-1zM349.4 462.2l1.9-9.5h-1.5l-.3 1.6c-.1-.1-.2-.2-.2-.3-.7-1-1.7-1.5-3-1.5s-2.5.5-3.6 1.5-1.7 2.1-2 3.5c-.3 1.3-.1 2.5.6 3.5s1.7 1.5 3 1.5 2.5-.5 3.6-1.5l.3-.3-.3 1.6h1.5zm-.6-4.7c-.2.9-.7 1.7-1.5 2.4s-1.6 1-2.6 1-1.7-.3-2.2-1c-.5-.7-.6-1.5-.5-2.4.2-.9.6-1.7 1.4-2.4.8-.7 1.6-1 2.6-1s1.7.3 2.2 1c.6.6.8 1.4.6 2.4zM354.8 462.2 358 446h-1.5l-3.2 16.2zM374.1 456.8h-6.8c.2-.4.4-.8.7-1.1.9-1.1 2-1.7 3.2-1.7.8 0 1.5.3 2 .8.6.5.9 1.2.9 2zm1.5.5c.3-1.3 0-2.4-.8-3.4-.8-.9-1.9-1.4-3.2-1.4-1.4 0-2.6.5-3.8 1.5-1.2 1-1.9 2.1-2.1 3.5-.3 1.4 0 2.6.8 3.5.4.5.8.8 1.4 1.1s1.2.4 2.1.4c.8 0 1.7-.3 2.6-.8.9-.5 1.7-1.2 2.3-2.1H373c-.4.5-.9.8-1.5 1.1-.5.3-1.1.4-1.6.4-.8 0-1.5-.3-2.1-.8-.5-.5-.8-1.2-.8-2h8.4l.2-1zM379.5 460.9c-.3-.3-.5-.7-.6-1.3h-1.6c0 2 1 2.9 3.2 2.9.5 0 1 0 1.5-.2s.9-.3 1.3-.6c.8-.5 1.3-1.3 1.5-2.3.2-1-.2-1.8-1-2.2-.4-.2-.8-.4-1.3-.5s-.9-.2-1.3-.3c-.4-.1-.7-.3-1-.5-.2-.2-.3-.5-.2-1 .1-.4.3-.7.7-1 .4-.2.8-.3 1.3-.3s.8.1 1.1.3c.3.2.5.5.5 1.1h1.6c0-1-.3-1.6-.8-2-.5-.4-1.3-.6-2.2-.6-.9 0-1.8.2-2.5.7-.8.5-1.3 1.2-1.4 2.1-.1.5 0 .9.1 1.2.2.3.5.6 1 .9.4.2.8.3 1.3.5.5.1.9.3 1.3.4.9.3 1.3.8 1.2 1.4-.2 1-1 1.6-2.4 1.6-.6.1-1-.1-1.3-.3zM387.6 454.1h2.4l-1.6 8.1h1.5l1.6-8.1h2.4l.2-1.4h-2.3l.7-3.7H391l-.7 3.7h-2.4zM404.1 462.2l1.9-9.5h-1.5l-.3 1.6c-.1-.1-.2-.2-.2-.3-.7-1-1.7-1.5-3-1.5s-2.5.5-3.6 1.5-1.7 2.1-2 3.5c-.3 1.3-.1 2.5.6 3.5s1.7 1.5 3 1.5 2.5-.5 3.6-1.5l.3-.3-.3 1.6h1.5zm-.6-4.7c-.2.9-.7 1.7-1.5 2.4s-1.6 1-2.6 1-1.7-.3-2.2-1c-.5-.7-.6-1.5-.5-2.4.2-.9.6-1.7 1.4-2.4.8-.7 1.6-1 2.6-1s1.7.3 2.2 1c.6.6.8 1.4.6 2.4zM408.5 454.1h2.3l-1.5 8.1h1.5l1.6-8.1h2.3l.3-1.4h-2.4l.7-3.7h-1.5l-.7 3.7h-2.4zM424.7 456.8h-6.8c.2-.4.4-.8.7-1.1.9-1.1 2-1.7 3.2-1.7.8 0 1.5.3 2 .8.6.5.8 1.2.9 2zm1.5.5c.3-1.3 0-2.4-.8-3.4-.8-.9-1.9-1.4-3.2-1.4-1.4 0-2.6.5-3.8 1.5-1.2 1-1.9 2.1-2.1 3.5-.3 1.4 0 2.6.8 3.5.4.5.8.8 1.4 1.1s1.2.4 2.1.4c.8 0 1.7-.3 2.6-.8s1.7-1.2 2.3-2.1h-1.7c-.4.5-.9.8-1.5 1.1-.5.3-1.1.4-1.6.4-.8 0-1.5-.3-2.1-.8-.5-.5-.8-1.2-.8-2h8.4v-1z"/></svg>